<svg xmlns="http://www.w3.org/2000/svg" version="1.1" xmlns:xlink="http://www.w3.org/1999/xlink" xmlns:svgjs="http://svgjs.com/svgjs" width="512" height="512"><svg version="1.1" id="SvgjsSvg1000" xmlns="http://www.w3.org/2000/svg" xmlns:xlink="http://www.w3.org/1999/xlink" x="0px" y="0px" viewBox="0 0 512 512" style="enable-background:new 0 0 512 512;" xml:space="preserve">
<style type="text/css">
	.st0{fill:#CCCCCC;}
	.st1{fill:#333333;}
	.st2{fill:#F2F2F2;}
	.st3{fill:none;stroke:#FF0001;stroke-width:10;stroke-miterlimit:10;}
	.st4{fill:none;stroke:#FF0001;stroke-width:10;stroke-linecap:round;stroke-miterlimit:10;}
</style>
<g>
	<path class="st0" d="M256,501c-65.44,0-126.97-25.48-173.24-71.76S11,321.44,11,256c0-65.44,25.48-126.97,71.76-173.24
		S190.56,11,256,11c65.44,0,126.97,25.48,173.24,71.76S501,190.56,501,256c0,65.44-25.48,126.97-71.76,173.24S321.44,501,256,501z"></path>
	<path class="st1" d="M256,16c32.4,0,63.83,6.34,93.42,18.86c28.58,12.09,54.25,29.39,76.29,51.44
		c22.04,22.04,39.35,47.71,51.44,76.29C489.66,192.17,496,223.6,496,256s-6.34,63.83-18.86,93.42
		c-12.09,28.58-29.39,54.25-51.44,76.29c-22.04,22.04-47.71,39.35-76.29,51.44C319.83,489.66,288.4,496,256,496
		s-63.83-6.34-93.42-18.86c-28.58-12.09-54.25-29.39-76.29-51.44c-22.04-22.04-39.35-47.71-51.44-76.29
		C22.34,319.83,16,288.4,16,256s6.34-63.83,18.86-93.42c12.09-28.58,29.39-54.25,51.44-76.29c22.04-22.04,47.71-39.35,76.29-51.44
		C192.17,22.34,223.6,16,256,16 M256,6C117.93,6,6,117.93,6,256s111.93,250,250,250s250-111.93,250-250S394.07,6,256,6L256,6z"></path>
</g>
<g>
	<circle class="st2" cx="256" cy="226" r="210"></circle>
</g>
<g>
	<path class="st3" d="M81,81c41.37,46.16,55.96,131.41,55.96,175S122.37,390.94,81,431"></path>
	<g>
		<line class="st4" x1="106" y1="115.42" x2="113.51" y2="86.37"></line>
		<line class="st4" x1="76.95" y1="107.91" x2="106" y2="115.42"></line>
	</g>
	<g>
		<line class="st4" x1="118.67" y1="150.63" x2="129.36" y2="122.6"></line>
		<line class="st4" x1="90.64" y1="139.94" x2="118.67" y2="150.63"></line>
	</g>
	<g>
		<line class="st4" x1="127.79" y1="183.77" x2="143.46" y2="158.19"></line>
		<line class="st4" x1="102.21" y1="168.09" x2="127.79" y2="183.77"></line>
	</g>
	<g>
		<line class="st4" x1="133.99" y1="217.66" x2="149.6" y2="192.04"></line>
		<line class="st4" x1="108.37" y1="202.05" x2="133.99" y2="217.66"></line>
	</g>
	<g>
		<line class="st4" x1="136.56" y1="254.24" x2="156.16" y2="231.53"></line>
		<line class="st4" x1="113.85" y1="234.64" x2="136.56" y2="254.24"></line>
	</g>
	<g>
		<line class="st4" x1="134.92" y1="287.46" x2="156.25" y2="266.37"></line>
		<line class="st4" x1="113.83" y1="266.12" x2="134.92" y2="287.46"></line>
	</g>
	<g>
		<line class="st4" x1="130.08" y1="319.41" x2="153.7" y2="300.91"></line>
		<line class="st4" x1="111.59" y1="295.79" x2="130.08" y2="319.41"></line>
	</g>
	<g>
		<line class="st4" x1="122.72" y1="351.99" x2="148.17" y2="336.1"></line>
		<line class="st4" x1="106.83" y1="326.55" x2="122.72" y2="351.99"></line>
	</g>
	<g>
		<line class="st4" x1="111.92" y1="382.06" x2="137.97" y2="367.18"></line>
		<line class="st4" x1="97.04" y1="356" x2="111.92" y2="382.06"></line>
	</g>
	<g>
		<line class="st4" x1="95.99" y1="411.93" x2="123.92" y2="400.99"></line>
		<line class="st4" x1="85.04" y1="384" x2="95.99" y2="411.93"></line>
	</g>
</g>
<g>
	<path class="st3" d="M431.29,431c-41.37-46.16-55.96-131.41-55.96-175s14.6-134.94,55.96-175"></path>
	<g>
		<line class="st4" x1="406.29" y1="396.58" x2="398.78" y2="425.63"></line>
		<line class="st4" x1="435.34" y1="404.09" x2="406.29" y2="396.58"></line>
	</g>
	<g>
		<line class="st4" x1="393.62" y1="361.37" x2="382.93" y2="389.4"></line>
		<line class="st4" x1="421.65" y1="372.06" x2="393.62" y2="361.37"></line>
	</g>
	<g>
		<line class="st4" x1="384.51" y1="328.23" x2="368.83" y2="353.81"></line>
		<line class="st4" x1="410.08" y1="343.91" x2="384.51" y2="328.23"></line>
	</g>
	<g>
		<line class="st4" x1="378.31" y1="294.34" x2="362.7" y2="319.96"></line>
		<line class="st4" x1="403.92" y1="309.95" x2="378.31" y2="294.34"></line>
	</g>
	<g>
		<line class="st4" x1="375.73" y1="257.76" x2="356.13" y2="280.47"></line>
		<line class="st4" x1="398.44" y1="277.36" x2="375.73" y2="257.76"></line>
	</g>
	<g>
		<line class="st4" x1="377.37" y1="224.54" x2="356.04" y2="245.63"></line>
		<line class="st4" x1="398.46" y1="245.88" x2="377.37" y2="224.54"></line>
	</g>
	<g>
		<line class="st4" x1="382.21" y1="192.59" x2="358.59" y2="211.09"></line>
		<line class="st4" x1="400.7" y1="216.21" x2="382.21" y2="192.59"></line>
	</g>
	<g>
		<line class="st4" x1="389.57" y1="160.01" x2="364.12" y2="175.9"></line>
		<line class="st4" x1="405.46" y1="185.45" x2="389.57" y2="160.01"></line>
	</g>
	<g>
		<line class="st4" x1="400.37" y1="129.94" x2="374.32" y2="144.82"></line>
		<line class="st4" x1="415.25" y1="156" x2="400.37" y2="129.94"></line>
	</g>
	<g>
		<line class="st4" x1="416.31" y1="100.07" x2="388.37" y2="111.01"></line>
		<line class="st4" x1="427.25" y1="128" x2="416.31" y2="100.07"></line>
	</g>
</g>
<g>
	<path class="st1" d="M256,16c32.4,0,63.83,6.34,93.42,18.86c28.58,12.09,54.25,29.39,76.29,51.44
		c22.04,22.04,39.35,47.71,51.44,76.29C489.66,192.17,496,223.6,496,256s-6.34,63.83-18.86,93.42
		c-12.09,28.58-29.39,54.25-51.44,76.29c-22.04,22.04-47.71,39.35-76.29,51.44C319.83,489.66,288.4,496,256,496
		s-63.83-6.34-93.42-18.86c-28.58-12.09-54.25-29.39-76.29-51.44c-22.04-22.04-39.35-47.71-51.44-76.29
		C22.34,319.83,16,288.4,16,256s6.34-63.83,18.86-93.42c12.09-28.58,29.39-54.25,51.44-76.29c22.04-22.04,47.71-39.35,76.29-51.44
		C192.17,22.34,223.6,16,256,16 M256,6C117.93,6,6,117.93,6,256s111.93,250,250,250s250-111.93,250-250S394.07,6,256,6L256,6z"></path>
</g>
</svg><style>@media (prefers-color-scheme: light) { :root { filter: none; } }
</style></svg>